# xmcd
#
# Track frame offsets:
#	150
#	15620
#	34865
#	48830
#	65558
#	77858
#	96908
#	111683
#	129588
#	144533
#	161933
#	175133
#	191108
#
# Disc length: 2716 seconds
#
# Revision: 1
# Processed by: cddbd v1.4PL0 Copyright (c) Steve Scherf et al.
# Submitted via: audiograbber 1.82.02
#
DISCID=be0a9a0d
DTITLE=Johnny Cash - A Country Christmas With Johnny Cash
DYEAR=1900
DGENRE=Xmas
TTITLE0=Silent Night
TTITLE1=What Child Is This
TTITLE2=Blue Christmas
TTITLE3=O Little Town Of Bethlehem
TTITLE4=Joy To The World
TTITLE5=The First Noel
TTITLE6=Away In A Manger
TTITLE7=It Came Upon A Midnight Clear
TTITLE8=O Come All Ye Faithful
TTITLE9=Hark The Herald Angels Sing
TTITLE10=Figgy Pudding
TTITLE11=O Christmas Tree
TTITLE12=Here Was A Man
EXTD=
EXTT0=
EXTT1=
EXTT2=
EXTT3=
EXTT4=
EXTT5=
EXTT6=
EXTT7=
EXTT8=
EXTT9=
EXTT10=
EXTT11=
EXTT12=
PLAYORDER=
